<?xml version="1.0" encoding="UTF-8" standalone="no"?>
<!DOCTYPE svg PUBLIC "-//W3C//DTD SVG 1.1//EN" "http://www.w3.org/Graphics/SVG/1.1/DTD/svg11.dtd">
<svg aria-label="Showpass logomark" xmlns="http://www.w3.org/2000/svg" version="1.0" width="558.000000pt" height="558.000000pt" viewBox="0 0 558.000000 558.000000" preserveAspectRatio="xMidYMid meet">
    <g transform="translate(0.000000,558.000000) scale(0.100000,-0.100000)" fill="#dd3432" stroke="none">
        <path d="M4045 5573 c-69 -15 -366 -122 -470 -168 -16 -7 -77 -34 -135 -60 -104 -46 -536 -260 -555 -274 -5 -5 -50 -30 -100 -56 -622 -333 -1299 -788 -1598 -1076 l-60 -57 18 -59 c45 -139 -1 -290 -110 -364 l-34 -24 24 -45 c13 -25 86 -171 161 -325 328 -672 365 -745 377 -745 16 0 107 30 107 36 0 2 -34 86 -76 186 -42 101 -91 219 -109 263 -18 44 -42 102 -54 128 -29 67 -26 72 7 12 16 -27 41 -72 57 -100 15 -27 45 -79 65 -115 21 -36 68 -119 105 -185 101 -179 89 -166 127 -153 18 6 34 12 36 14 2 1 -5 24 -16 51 -11 26 -32 80 -47 118 -15 39 -34 84 -40 100 -7 17 -27 66 -44 110 -18 44 -37 90 -43 102 -6 13 -9 25 -7 27 2 2 67 -103 143 -235 76 -131 141 -239 144 -239 5 0 73 22 80 26 2 1 -25 71 -59 155 -96 240 -99 249 -95 249 5 0 106 -176 106 -186 0 -4 6 -15 14 -23 7 -9 27 -41 43 -71 57 -105 50 -100 100 -83 24 9 43 21 43 30 0 12 -19 64 -51 138 -24 56 -77 195 -75 195 2 0 42 -66 90 -147 47 -82 90 -154 95 -162 7 -11 17 -9 56 8 37 17 46 24 40 38 -4 10 -24 65 -46 123 -21 58 -44 113 -50 124 -6 10 -6 16 -1 12 5 -3 42 -60 82 -126 40 -66 76 -122 79 -124 3 -2 25 5 49 16 40 19 43 23 36 52 -3 17 -9 36 -13 41 -9 16 -50 139 -47 143 4 4 110 -159 114 -175 5 -17 12 -16 65 7 l45 20 -24 78 c-13 42 -24 81 -24 86 0 6 23 -22 51 -62 28 -40 52 -72 54 -72 19 0 95 47 91 56 -3 7 -8 30 -12 51 l-6 38 39 -38 40 -38 49 27 c27 14 73 40 102 56 94 53 55 22 -80 -65 -237 -150 -646 -370 -923 -494 -28 -13 -86 -39 -130 -59 -44 -20 -145 -63 -225 -96 -80 -33 -158 -65 -175 -73 -36 -15 -350 -136 -415 -158 -25 -9 -148 -52 -275 -96 -193 -66 -230 -82 -228 -98 1 -10 5 -38 8 -63 4 -32 -1 -66 -15 -115 -19 -62 -30 -78 -87 -133 l-66 -64 37 -77 c38 -77 38 -77 74 -73 66 8 135 -54 126 -114 -6 -39 -23 -74 -39 -80 -22 -9 -19 -27 19 -102 l34 -67 46 3 c42 4 49 1 81 -31 27 -27 35 -43 35 -72 0 -40 -14 -72 -41 -96 -18 -15 -17 -19 19 -90 37 -73 38 -74 74 -71 106 9 167 -116 92 -191 l-25 -25 37 -74 c20 -40 38 -74 39 -76 2 -2 26 3 54 12 128 38 259 -12 351 -132 l25 -33 75 16 c41 9 82 18 91 20 96 21 408 126 596 201 135 53 331 134 404 168 30 13 115 52 189 87 690 317 1358 710 1668 980 l33 29 -17 57 c-39 133 15 271 140 358 l28 20 -37 75 -37 75 -48 -3 c-41 -3 -52 0 -81 26 -30 27 -34 36 -34 81 0 41 5 55 28 79 l28 30 -35 75 -36 75 -39 -5 c-67 -9 -131 45 -131 110 0 26 34 85 54 93 11 4 6 22 -22 83 l-37 78 -36 -4 c-117 -16 -183 134 -88 200 20 15 20 15 -20 95 l-40 80 -39 -13 c-97 -34 -197 -20 -286 40 -28 19 -60 47 -70 63 l-19 29 -89 -29 c-150 -48 -381 -107 -523 -133 -168 -31 -300 -50 -440 -63 -158 -14 -595 -6 -665 13 -8 2 -35 7 -60 10 -150 20 -367 87 -505 156 -126 63 -180 103 -72 53 67 -30 129 -52 302 -104 35 -10 72 -18 135 -26 25 -3 52 -7 60 -10 30 -8 169 -17 298 -18 273 -3 543 33 877 119 146 38 396 116 460 144 11 5 62 26 113 46 l94 38 43 -49 c56 -65 121 -97 208 -102 37 -2 87 1 112 7 24 6 138 57 252 113 115 57 231 113 259 125 27 12 74 33 104 47 156 69 428 167 506 182 28 5 34 10 28 23 -16 37 -34 118 -34 151 0 82 55 191 122 244 36 27 36 23 -20 121 l-28 50 -57 0 c-49 1 -59 4 -86 33 -41 42 -43 106 -6 150 l25 30 -40 68 -40 69 -55 0 c-48 0 -59 4 -85 31 -41 41 -44 99 -7 147 l25 33 -40 71 -41 71 -40 -6 c-55 -7 -101 19 -121 68 -17 44 -8 96 23 124 19 17 18 19 -21 87 -44 76 -53 85 -71 71 -7 -5 -25 -13 -42 -17 -132 -31 -258 8 -336 105 -18 22 -35 39 -38 39 -3 -1 -15 -3 -26 -6z"/>
    </g>
</svg>