<?xml version="1.0" encoding="UTF-8" standalone="no"?>
<!DOCTYPE svg PUBLIC "-//W3C//DTD SVG 1.1//EN" "http://www.w3.org/Graphics/SVG/1.1/DTD/svg11.dtd">
<svg aria-label="TailwindCSS logomark" width="100%" height="100%" viewBox="0 0 7991 4500" version="1.1" xmlns="http://www.w3.org/2000/svg" xmlns:xlink="http://www.w3.org/1999/xlink" xml:space="preserve" xmlns:serif="http://www.serif.com/" style="fill-rule:evenodd;clip-rule:evenodd;stroke-linejoin:round;stroke-miterlimit:2;">
<path d="M3995.16,0c-1065.45,0 -1731.18,499.984 -1997.66,1499.95c399.563,-499.984 865.667,-687.441 1398.31,-562.519c303.9,71.257 521.217,278.229 761.55,507.376c391.734,373.141 845.157,804.972 1835.3,804.972c1065.29,0 1731.18,-499.984 1997.5,-1499.81c-399.406,499.984 -865.511,687.441 -1398.16,562.371c-304.056,-71.257 -521.374,-278.229 -761.706,-507.228c-391.735,-373.436 -845.001,-805.12 -1835.14,-805.12Zm-1997.66,2249.78c-1065.29,0 -1731.18,499.985 -1997.5,1499.95c399.563,-499.985 865.668,-687.442 1398.16,-562.52c304.056,71.258 521.373,278.229 761.706,507.377c391.735,373.14 845.001,804.972 1835.3,804.972c1065.29,-0 1731.18,-499.837 1997.5,-1499.81c-399.563,499.985 -865.667,687.442 -1398.31,562.52c-303.9,-71.406 -521.217,-278.377 -761.55,-507.377c-391.734,-373.14 -845.157,-805.12 -1835.3,-805.12Z" style="fill:#38bdf8;"/>
</svg>